<svg xmlns="http://www.w3.org/2000/svg" version="1.1" xmlns:xlink="http://www.w3.org/1999/xlink" xmlns:svgjs="http://svgjs.dev/svgjs" viewBox="0 0 800 800"><defs><linearGradient x1="50%" y1="0%" x2="50%" y2="100%" id="ccchaos-grad"><stop stop-color="hsl(206, 75%, 49%)" stop-opacity="1" offset="0%"></stop><stop stop-color="hsl(331, 90%, 56%)" stop-opacity="1" offset="100%"></stop></linearGradient></defs><g stroke-width="2.5" stroke="url(#ccchaos-grad)" fill="none" stroke-linecap="round"><path d="M376.57 104.45C381.77 93.73 400.33 99.24 408.13 114.26Q413.24 123.91 418.51 133.8 423.94 143.9 429.48 154.22 435.11 164.74 440.81 175.44 446.52 186.32 452.22 197.34 457.87 208.49 463.44 219.75 468.89 231.08 474.19 242.46 479.31 253.86 484.23 265.26 488.92 276.61 493.36 287.88 497.55 299.05 501.48 310.09 505.15 320.95 508.56 331.61 511.72 342.03 514.66 352.2 517.39 362.07 519.95 371.63 522.35 380.85 524.65 389.71 529.07 406.08 533.51 421.23 538.41 434.31 543.81 446.13 556.2 462.23 566.54 471.98 576.61 478.13 587.48 483.73 599.39 488.84 611.71 493.93 624.25 499.47 636.64 505.57 648.33 513.1 659.33 521.76 668.89 532.71 677.45 545.25 681.13 552.52 684.47 560.39 687.48 568.89 690.18 578.02C693.59 592.3 681.27 599.86 667.88 597.7Q651.37 604.28 634.86 620.29 618.34 643.8 601.83 671.99 585.31 701.46 568.8 728.67 552.29 750.36 535.77 763.91 519.26 767.69 502.74 761.26 486.23 745.38 469.72 721.96 453.2 693.82 436.69 664.35 420.17 637.07 403.66 615.28 387.15 601.6 370.63 597.66 354.12 603.94 337.6 619.69 321.09 643.02 304.57 671.11 288.06 700.59 271.55 727.93 255.03 749.82 238.52 763.64 222 767.73 205.49 761.59 188.97 745.97 172.46 722.74 155.94 694.69 139.43 665.2C126.04 642.68 118.09 616.58 124.65 613.95Q140.07 608.81 150.69 605.21 164.26 598.1 173.47 591.54 185.37 576.89 193.7 564.01 200.41 550.64 207.28 535.74 210.85 527.42 214.51 518.62 218.3 509.36 222.2 499.65 226.24 489.53 230.42 479.02 234.74 468.15 239.19 456.96 243.79 445.47 248.5 433.73 253.34 421.77 258.28 409.63 263.3 397.35 268.39 384.97 273.53 372.52 278.69 360.05 283.85 347.6 288.99 335.19 294.08 322.87 299.1 310.66 304.02 298.6 308.82 286.72 313.5 275.05 318.02 263.59 322.38 252.39 326.56 241.44 330.57 230.78 334.39 220.4 338.03 210.32 341.5 200.55 344.81 191.07 347.97 181.9 351 173.02 353.92 164.43 359.51 148.21 365.01 132.74 373.62 111.39 376.57 104.45" stroke-dasharray="61 97" transform="rotate(0, 400, 400)" opacity="0.26"></path><path d="M378.32 113.26C383.03 103 400.99 108.59 408.85 123.17Q413.95 132.53 419.18 142.1 424.51 151.89 429.93 161.88 435.4 172.07 440.9 182.43 446.38 192.96 451.82 203.63 457.19 214.43 462.45 225.34 467.58 236.33 472.55 247.38 477.34 258.45 481.92 269.53 486.29 280.59 490.42 291.59 494.31 302.51 497.96 313.32 501.38 323.98 504.56 334.48 507.52 344.77 510.29 354.84 512.87 364.65 515.29 374.18 517.59 383.41 519.8 392.32 524.08 408.91 528.41 424.39 533.18 437.92 538.42 450.25 550.26 467.31 560.1 477.69 569.63 484.18 579.92 489.98 591.23 494.98 602.97 499.74 615.04 504.51 627.04 509.55 638.54 515.5 649.49 522.25 659.21 530.76 668.06 540.54 675.34 552.79 681.68 566.66C685.4 578.28 673.93 588.62 660.97 591.21Q644.99 602.61 629.01 621.84 613.03 646.74 597.05 674.54 581.07 702.12 565.08 726.39 549.1 744.65 533.12 754.84 517.14 755.83 501.16 747.51 485.18 730.81 469.2 707.59 453.21 680.46 437.23 652.45 421.25 626.69 405.27 606.06 389.29 592.88 373.31 588.61 357.32 593.74 341.34 607.68 325.36 628.89 309.38 654.98 293.4 683.05 277.42 709.94 261.43 732.66 245.45 748.65 229.47 756.14 213.49 754.27 197.51 743.27 181.53 724.36 165.54 699.66 149.56 671.93C136.6 649.35 128.87 622.66 135.14 620.77Q156.7 613.32 167.33 608.21 179.51 597.19 187.84 587.24 194.23 576.54 200.59 564.41 207.06 549.88 213.71 533.94 217.17 525.17 220.73 515.98 224.4 506.38 228.19 496.4 232.11 486.07 236.16 475.4 240.34 464.44 244.65 453.22 249.09 441.76 253.65 430.1 258.32 418.28 263.09 406.33 267.94 394.29 272.86 382.2 277.82 370.08 282.81 357.98 287.81 345.92 292.79 333.94 297.73 322.07 302.61 310.33 307.41 298.76 312.11 287.37 316.69 276.2 321.13 265.25 325.42 254.54 329.56 244.1 333.53 233.92 337.33 224.02 340.96 214.41 344.42 205.09 347.71 196.05 350.86 187.3 356.71 170.76 362.27 155.01 367.55 140.44 372.83 126.47 376.93 116.53 378.32 113.26" stroke-dasharray="54 12" transform="rotate(5.407407407407407, 400, 400)" opacity="0.93"></path><path d="M380.26 122.09C384.57 112.3 401.91 117.93 409.76 132.05Q419.94 150.38 430.41 169.51 440.95 189.37 451.33 209.87 461.34 230.86 470.78 252.2 479.5 273.7 487.38 295.16 494.38 316.37 500.52 337.12 505.89 357.19 510.63 376.39 514.96 394.53 519.1 411.45 523.32 427.02 527.88 441.16 533.02 453.8 538.94 464.94 545.8 474.63 553.68 482.96 562.57 490.05 572.41 496.09 583.05 501.3 594.28 505.93 605.83 510.28 617.41 514.65 628.72 519.36 639.48 524.73 649.42 531.08 658.35 538.72 666.15 547.93 672.77 558.94C676.84 568.1 666.25 581.06 653.72 587.84Q638.28 603.15 622.85 624.63 607.41 650.04 591.97 676.74 576.53 701.96 561.09 723.08 545.65 737.92 530.21 744.92 514.77 743.37 499.33 733.43 483.89 716.12 468.46 693.24 453.02 667.17 437.58 640.62 422.14 616.34 406.7 596.85 391.26 584.17 375.82 579.62 360.38 583.68 344.95 595.92 329.51 615.07 314.07 639.14 298.63 665.63 283.19 691.8 267.75 714.93 252.31 732.62 236.88 743.02 221.44 745.07 206 738.55 190.56 724.13 175.12 703.31 159.68 678.26C147.16 656.6 139.61 630 145.58 628.4Q161.25 622.38 175.91 613.6 182.62 606.95 189.05 598.7 195.27 588.72 201.37 576.93 207.46 563.33 213.68 547.95 220.14 530.87 226.95 512.24 234.18 492.22 241.89 471.02 250.11 448.86 258.8 426 267.9 402.7 277.32 379.2 286.93 355.76 296.57 332.61 306.1 309.97 315.35 288.02 324.19 266.91 332.49 246.77 340.19 227.67 347.24 209.66 353.68 192.73 359.55 176.86 364.99 161.96 370.12 147.96 377.71 128.4 380.26 122.09" stroke-dasharray="100 84" transform="rotate(10.814814814814815, 400, 400)" opacity="0.40"></path><path d="M382.36 130.94C386.32 121.59 403.05 127.26 410.81 140.91Q420.76 158.62 430.86 177.09 440.91 196.25 450.72 216.03 460.09 236.29 468.88 256.91 476.95 277.73 484.24 298.56 490.73 319.22 496.44 339.51 501.47 359.25 505.97 378.24 510.11 396.31 514.12 413.31 518.22 429.11 522.65 443.59 527.61 456.7 533.29 468.4 539.82 478.69 547.27 487.63 555.67 495.3 564.94 501.84 574.99 507.42 585.63 512.23 596.64 516.5 607.77 520.51 618.75 524.52 629.32 528.82 639.25 533.71 648.33 539.47 656.42 546.38 663.45 554.7C667.84 561.68 658.16 576.96 646.09 587.22Q631.2 605.46 616.32 628.21 601.43 653.29 586.54 678.27 571.66 700.78 556.77 718.63 541.89 730.13 527 734.16 512.12 730.34 497.23 719.03 482.35 701.32 467.46 678.91 452.58 653.96 437.69 628.86 422.81 606.02 407.92 587.63 393.04 575.46 378.15 570.68 363.27 573.75 348.38 584.37 333.5 601.52 318.61 623.56 303.73 648.37 288.84 673.56 273.96 696.73 259.07 715.63 244.19 728.46 229.3 733.99 214.42 731.68 199.53 721.76 184.65 705.17 169.76 683.52C157.69 663.66 150.3 637.81 155.95 636.06Q170.67 628.51 184.4 617.48 190.71 609.46 196.77 599.81 202.66 588.46 208.48 575.41 214.34 560.69 220.34 544.36 226.59 526.56 233.18 507.42 240.18 487.13 247.64 465.9 255.57 443.93 263.95 421.47 272.72 398.75 281.78 375.98 291.04 353.4 300.35 331.2 309.58 309.57 318.57 288.66 327.2 268.6 335.37 249.47 342.98 231.35 349.99 214.26 356.41 198.19 362.27 183.1 367.67 168.93 372.71 155.6 379.96 136.95 382.36 130.94" stroke-dasharray="83 3" transform="rotate(16.22222222222222, 400, 400)" opacity="0.44"></path><path d="M384.56 139.79C388.25 130.9 404.37 136.58 411.98 149.76Q421.61 166.84 431.27 184.63 440.78 203.09 449.98 222.13 458.71 241.66 466.85 261.54 474.3 281.65 481.02 301.82 487.02 321.88 492.33 341.67 497.04 361.02 501.3 379.74 505.28 397.68 509.16 414.68 513.14 430.62 517.43 445.39 522.21 458.91 527.65 471.12 533.85 482.01 540.89 491.59 548.8 499.9 557.52 507.05 566.98 513.14 577.03 518.33 587.48 522.81 598.12 526.78 608.72 530.47 619.05 534.13 628.88 538.01 638.03 542.39 646.33 547.52 653.69 553.64C658.38 558.8 649.63 575.96 638.01 588.91Q623.69 609.06 609.37 632.16 595.05 656.15 580.73 678.92 566.41 698.44 552.09 713 537.77 721.29 523.45 722.58 509.13 716.77 494.81 704.36 480.49 686.45 466.17 664.63 451.85 640.84 437.53 617.17 423.21 595.73 408.89 578.41 394.57 566.75 380.25 561.78 365.93 563.94 351.61 573.04 337.29 588.28 322.97 608.29 308.65 631.32 294.33 655.32 280.01 678.17 265.69 697.84 251.37 712.59 237.05 721.11 222.73 722.66 208.41 717.08 194.09 704.89 179.77 687.15C168.15 669.75 160.93 645.28 166.23 643.02Q173.35 639.03 180.15 633.89 186.63 627.43 192.81 619.52 198.73 610.07 204.44 599.02 210.03 586.39 215.59 572.18 221.21 556.48 226.99 539.39 233.03 521.04 239.41 501.59 246.19 481.22 253.39 460.13 261.03 438.51 269.1 416.58 277.52 394.55 286.24 372.62 295.14 350.97 304.11 329.77 313.02 309.19 321.75 289.34 330.16 270.32 338.16 252.22 345.67 235.07 352.63 218.9 359.03 203.68 364.89 189.37 370.27 175.93 375.25 163.25 382.26 145.52 384.56 139.79" stroke-dasharray="62 3" transform="rotate(21.62962962962963, 400, 400)" opacity="0.54"></path><path d="M386.81 148.66C390.31 140.21 405.81 145.88 413.18 158.58Q422.42 175.02 431.58 192.14 440.52 209.88 449.09 228.18 457.17 246.95 464.67 266.08 471.53 285.46 477.72 304.94 483.25 324.37 488.18 343.61 492.6 362.51 496.64 380.89 500.45 398.62 504.2 415.56 508.06 431.57 512.21 446.55 516.81 460.41 522 473.07 527.89 484.52 534.53 494.72 541.96 503.7 550.15 511.52 559.03 518.24 568.49 523.97 578.37 528.86 588.49 533.07 598.67 536.77 608.69 540.18 618.35 543.5 627.47 546.98 635.91 550.84 643.53 555.31C648.47 559.03 640.61 577.61 629.46 592.39Q615.72 613.45 601.97 636.04 588.23 658.32 574.49 678.47 560.74 694.86 547 706.15 533.25 711.42 519.51 710.24 505.77 702.71 492.02 689.45 478.28 671.52 464.53 650.4 450.79 627.79 437.05 605.54 423.3 585.47 409.56 569.2 395.81 558.05 382.07 552.94 368.33 554.28 354.58 561.97 340.84 575.37 327.1 593.39 313.35 614.57 299.61 637.19 285.87 659.41 272.12 679.4 258.38 695.56 244.63 706.56 230.89 711.51 217.15 710.01 203.4 702.17 189.66 688.64C178.52 674.23 171.43 651.59 176.38 648.52Q183.01 643.26 189.33 636.72 195.36 628.8 201.13 619.42 206.68 608.56 212.06 596.22 217.37 582.42 222.67 567.23 228.07 550.75 233.65 533.09 239.49 514.4 245.65 494.84 252.19 474.57 259.14 453.78 266.5 432.66 274.24 411.4 282.33 390.17 290.69 369.14 299.23 348.49 307.86 328.34 316.45 308.83 324.89 290.06 333.07 272.11 340.9 255.02 348.28 238.85 355.18 223.58 361.55 209.2 367.41 195.68 372.78 182.95 377.74 170.94 384.6 154.1 386.81 148.66" stroke-dasharray="37 10" transform="rotate(27.037037037037035, 400, 400)" opacity="0.91"></path><path d="M389.06 157.54C392.43 149.54 407.32 155.18 414.39 167.39Q423.17 183.18 431.78 199.61 440.11 216.62 448.04 234.17 455.48 252.17 462.36 270.53 468.65 289.15 474.33 307.91 479.43 326.68 484 345.33 488.15 363.72 491.98 381.7 495.63 399.15 499.24 415.94 502.98 431.94 506.99 447.04 511.41 461.15 516.36 474.21 521.93 486.15 528.19 496.94 535.16 506.58 542.83 515.09 551.14 522.51 560.01 528.91 569.31 534.38 578.9 539.04 588.61 543.04 598.26 546.54 607.68 549.7 616.7 552.72 625.17 555.81 632.97 559.16C638.12 561.86 631.11 581.29 620.43 597.05Q607.28 618.08 594.12 639.41 580.96 659.45 567.81 676.71 554.65 689.9 541.49 698.04 528.34 700.52 515.18 697.16 502.02 688.21 488.87 674.33 475.71 656.56 462.55 636.23 449.4 614.84 436.24 593.99 423.08 575.24 409.93 559.98 396.77 549.35 383.61 544.14 370.46 544.74 357.3 551.1 344.14 562.75 330.99 578.83 317.83 598.12 304.67 619.21 291.52 640.51 278.36 660.44 265.2 677.52 252.05 690.46 238.89 698.31 225.73 700.49 212.57 696.82 199.42 687.59C188.74 676.47 181.8 656.08 186.39 652Q192.53 645.27 198.4 637.22 204 627.82 209.37 617.03 214.57 604.86 219.65 591.36 224.69 576.57 229.76 560.6 234.94 543.55 240.32 525.54 245.95 506.72 251.9 487.24 258.21 467.26 264.89 446.94 271.96 426.46 279.39 405.98 287.14 385.64 295.14 365.61 303.32 346 311.59 326.94 319.86 308.53 328 290.85 335.93 273.95 343.56 257.89 350.81 242.68 357.62 228.31 363.95 214.78 369.79 202.02 375.17 190 380.13 178.64 386.9 162.69 389.06 157.54" stroke-dasharray="30 65" transform="rotate(32.44444444444444, 400, 400)" opacity="0.32"></path><path d="M391.27 166.44C394.56 158.87 408.82 164.46 415.54 176.18Q423.8 191.32 431.82 207.05 439.53 223.33 446.82 240.11 453.64 257.33 459.92 274.91 465.66 292.75 470.86 310.77 475.56 328.84 479.81 346.85 483.69 364.67 487.32 382.19 490.82 399.29 494.3 415.84 497.91 431.74 501.77 446.87 506 461.15 510.71 474.5 515.98 486.86 521.87 498.18 528.39 508.44 535.55 517.63 543.31 525.77 551.6 532.89 560.32 539.06 569.35 544.36 578.56 548.88 587.8 552.74 596.9 556.08 605.74 559.06 614.15 561.84 622.03 564.58C627.31 566.63 621.12 586.36 610.92 602.29Q598.37 622.44 585.81 641.88 573.25 659.3 560.69 673.5 548.13 683.52 535.57 688.69 523.01 688.65 510.45 683.4 497.89 673.3 485.33 659.04 472.77 641.59 460.21 622.12 447.65 601.97 435.09 582.5 422.53 565.04 409.97 550.76 397.41 540.65 384.85 535.38 372.29 535.31 359.73 540.46 347.17 550.46 334.61 564.65 322.05 582.05 309.49 601.48 296.93 621.64 284.37 641.13 271.81 658.65 259.25 673 246.69 683.21 234.13 688.58 221.57 688.75 209.01 683.7C198.82 676 192.03 658.11 196.27 652.93Q201.93 644.66 207.35 635.12 212.54 624.3 217.54 612.22 222.41 598.91 227.21 584.45 231.99 568.9 236.84 552.38 241.82 534.98 246.99 516.85 252.42 498.11 258.16 478.91 264.23 459.4 270.65 439.71 277.43 420 284.53 400.41 291.94 381.05 299.58 362.07 307.4 343.55 315.32 325.61 323.24 308.31 331.08 291.73 338.74 275.89 346.16 260.84 353.24 246.59 359.94 233.11 366.21 220.4 372.04 208.41 377.42 197.09 382.39 186.37 389.12 171.31 391.27 166.44" stroke-dasharray="79 80" transform="rotate(37.85185185185185, 400, 400)" opacity="0.50"></path><path d="M393.39 175.35C396.62 168.22 410.28 173.75 416.57 184.95Q424.26 199.42 431.68 214.44 438.75 229.98 445.42 245.99 451.62 262.41 457.34 279.19 462.57 296.25 467.32 313.49 471.64 330.82 475.59 348.15 479.23 365.37 482.67 382.36 486.01 399.03 489.36 415.27 492.84 430.97 496.55 446.04 500.6 460.38 505.07 473.93 510.05 486.62 515.57 498.38 521.66 509.19 528.33 519.01 535.55 527.85 543.26 535.72 551.4 542.64 559.87 548.67 568.55 553.87 577.33 558.32 586.06 562.12 594.63 565.38 602.91 568.24 610.77 570.83C616.12 572.6 610.65 592.13 600.96 607.49Q589 626.04 577.05 643.11 565.09 657.63 553.14 668.73 541.18 675.7 529.23 678.13 517.27 675.85 505.32 669.02 493.36 658.06 481.41 643.63 469.46 626.63 457.5 608.11 445.55 589.21 433.59 571.09 421.64 554.87 409.68 541.55 397.73 531.95 385.78 526.66 373.82 526.01 361.87 530.05 349.91 538.51 337.96 550.88 326 566.39 314.05 584.1 302.1 602.9 290.14 621.64 278.19 639.17 266.23 654.4 254.28 666.4 242.33 674.42 230.37 677.97 218.42 676.83C208.72 672.51 202.08 657.2 205.97 650.92Q211.18 641.16 216.17 630.23 220.97 618.15 225.64 604.98 230.2 590.75 234.73 575.57 239.28 559.51 243.92 542.67 248.7 525.18 253.68 507.15 258.91 488.71 264.42 469.98 270.25 451.1 276.41 432.18 282.89 413.36 289.68 394.74 296.74 376.44 304.02 358.56 311.48 341.18 319.03 324.37 326.6 308.19 334.13 292.7 341.51 277.93 348.69 263.88 355.6 250.56 362.17 237.97 368.36 226.07 374.15 214.83 379.53 204.2 384.51 194.12 391.25 179.94 393.39 175.35" stroke-dasharray="13 88" transform="rotate(43.25925925925926, 400, 400)" opacity="0.57"></path><path d="M395.35 184.27C398.58 177.56 411.6 183 417.46 193.71Q424.55 207.5 431.34 221.81 437.78 236.59 443.83 251.82 449.45 267.44 454.63 283.41 459.38 299.65 463.72 316.09 467.69 332.66 471.35 349.27 474.77 365.82 478.03 382.23 481.22 398.4 484.43 414.23 487.77 429.65 491.33 444.55 495.19 458.86 499.43 472.49 504.12 485.39 509.28 497.5 514.96 508.76 521.15 519.14 527.84 528.63 535 537.21 542.56 544.9 550.45 551.71 558.59 557.68 566.87 562.86 575.18 567.32 583.42 571.13 591.47 574.4 599.23 577.22C604.58 579.04 599.76 597.85 590.56 612.02Q579.22 628.4 567.87 642.74 556.53 654.26 545.19 662.29 533.85 666.41 522.51 666.37 511.17 662.19 499.83 654.08 488.48 642.51 477.14 628.12 465.8 611.71 454.46 594.19 443.12 576.54 431.78 559.74 420.43 544.73 409.09 532.33 397.75 523.25 386.41 517.98 375.07 516.82 363.73 519.84 352.38 526.86 341.04 537.49 329.7 551.16 318.36 567.08 307.02 584.38 295.68 602.1 284.33 619.24 272.99 634.85 261.65 648.07 250.31 658.16 238.97 664.56 227.62 666.91C218.42 665.74 211.95 653.04 215.51 645.71Q220.28 634.62 224.88 622.49 229.33 609.39 233.67 595.36 237.96 580.48 242.24 564.84 246.57 548.53 251 531.65 255.59 514.3 260.38 496.59 265.4 478.65 270.7 460.57 276.29 442.46 282.18 424.45 288.36 406.61 294.82 389.06 301.54 371.88 308.46 355.14 315.55 338.91 322.73 323.25 329.95 308.2 337.15 293.8 344.24 280.07 351.16 267.01 357.86 254.63 364.28 242.9 370.36 231.8 376.1 221.3 381.46 211.36 386.44 201.91 393.21 188.59 395.35 184.27" stroke-dasharray="76 85" transform="rotate(48.666666666666664, 400, 400)" opacity="0.82"></path><path d="M397.13 193.21C400.38 186.93 412.75 192.26 418.14 202.45Q424.61 215.56 430.78 229.14 436.61 243.17 442.06 257.61 447.13 272.42 451.8 287.56 456.11 302.97 460.06 318.6 463.71 334.37 467.1 350.21 470.31 366.06 473.39 381.82 476.43 397.42 479.51 412.78 482.72 427.81 486.12 442.45 489.79 456.61 493.8 470.22 498.19 483.21 503.02 495.54 508.29 507.14 514.02 517.98 520.2 528.03 526.81 537.26 533.81 545.66 541.12 553.24 548.7 560.01 556.46 566 564.31 571.25 572.15 575.8 579.9 579.71 587.45 583.07C592.72 585.2 588.48 602.87 579.78 615.33Q569.05 629.14 558.33 640.57 547.61 649.06 536.88 654.19 526.16 655.7 515.44 653.51 504.71 647.73 493.99 638.66 483.27 626.74 472.54 612.57 461.82 596.85 451.1 580.39 440.37 563.98 429.65 548.47 418.93 534.62 408.2 523.12 397.48 514.55 386.76 509.34 376.03 507.74 365.31 509.85 354.58 515.54 343.86 524.54 333.14 536.41 322.41 550.53 311.69 566.22 300.97 582.68 290.24 599.09 279.52 614.63 268.79 628.53 258.07 640.09 247.35 648.74 236.62 654.03C227.93 655.68 221.65 645.49 224.89 637.25Q229.25 625.05 233.48 611.99 237.6 598.13 241.65 583.54 245.68 568.29 249.73 552.48 253.86 536.19 258.1 519.51 262.49 502.54 267.09 485.37 271.91 468.1 276.98 450.83 282.32 433.65 287.94 416.64 293.82 399.88 299.96 383.46 306.33 367.43 312.89 351.86 319.6 336.81 326.42 322.3 333.28 308.37 340.14 295.05 346.92 282.35 353.57 270.26 360.04 258.79 366.27 247.91 372.23 237.6 377.88 227.83 383.2 218.55 388.18 209.72 394.98 197.25 397.13 193.21" stroke-dasharray="101 49" transform="rotate(54.07407407407407, 400, 400)" opacity="0.57"></path><path d="M398.7 202.17C401.97 196.3 413.68 201.5 418.57 211.16Q424.42 223.59 429.98 236.44 435.21 249.7 440.1 263.34 444.64 277.33 448.85 291.63 452.74 306.2 456.35 320.99 459.7 335.94 462.84 350.99 465.84 366.08 468.76 381.14 471.66 396.11 474.6 410.91 477.66 425.48 480.9 439.74 484.39 453.64 488.16 467.1 492.28 480.07 496.76 492.49 501.65 504.3 506.94 515.48 512.63 525.96 518.7 535.74 525.14 544.78 531.89 553.08 538.9 560.63 546.11 567.44 553.45 573.52 560.85 578.9 568.22 583.62 575.49 587.72C580.62 590.31 576.87 606.5 568.67 616.92Q558.57 627.9 548.47 636.37 538.37 641.95 528.27 644.4 518.17 643.6 508.06 639.59 497.96 632.55 487.86 622.8 477.76 610.76 467.66 596.97 457.55 582.06 447.45 566.68 437.35 551.52 427.25 537.26 417.15 524.53 407.05 513.9 396.94 505.84 386.84 500.72 376.74 498.76 366.64 500.05 356.54 504.54 346.43 512.01 336.33 522.14 326.23 534.48 316.13 548.48 306.03 563.51 295.92 578.9 285.82 593.96 275.72 608.03 265.62 620.48 255.52 630.75 245.41 638.38C237.22 642.39 231.17 634.5 234.12 625.58Q238.11 612.56 242 598.86 245.82 584.56 249.6 569.71 253.4 554.4 257.24 538.7 261.16 522.69 265.21 506.45 269.42 490.08 273.82 473.64 278.43 457.22 283.28 440.9 288.37 424.74 293.71 408.83 299.29 393.22 305.11 377.98 311.12 363.14 317.32 348.77 323.66 334.88 330.11 321.53 336.6 308.71 343.11 296.46 349.56 284.76 355.93 273.63 362.15 263.05 368.18 253 373.98 243.46 379.52 234.4 384.77 225.79 389.72 217.57 396.53 205.94 398.7 202.17" stroke-dasharray="4 81" transform="rotate(59.48148148148148, 400, 400)" opacity="0.24"></path><path d="M400.01 211.14C403.3 205.68 414.34 210.74 418.74 219.87Q423.98 231.6 428.94 243.71 433.6 256.2 437.96 269.04 442.03 282.2 445.8 295.66 449.31 309.37 452.59 323.3 455.66 337.4 458.58 351.62 461.39 365.91 464.14 380.22 466.9 394.49 469.7 408.66 472.61 422.68 475.69 436.48 478.98 450.01 482.53 463.2 486.37 476.01 490.53 488.39 495.04 500.27 499.9 511.63 505.12 522.43 510.68 532.61 516.57 542.17 522.76 551.08 529.2 559.32 535.85 566.89 542.66 573.79 549.57 580.02 556.51 585.6 563.43 590.56C568.35 593.74 565.01 608.2 557.31 616.37Q547.83 624.44 538.36 630.03 528.88 632.91 519.4 632.97 509.92 630.2 500.44 624.72 490.96 616.75 481.49 606.59 472.01 594.65 462.53 581.4 453.05 567.36 443.57 553.1 434.1 539.17 424.62 526.12 415.14 514.47 405.66 504.68 396.18 497.14 386.7 492.14 377.22 489.88 367.75 490.46 358.27 493.84 348.79 499.9 339.31 508.4 329.83 518.99 320.35 531.27 310.87 544.74 301.4 558.87 291.92 573.11 282.44 586.9 272.96 599.67 263.48 610.95 254 620.26C246.31 626.14 240.51 620.27 243.2 610.89Q246.85 597.39 250.43 583.4 253.98 568.97 257.52 554.18 261.1 539.09 264.74 523.78 268.47 508.3 272.34 492.74 276.36 477.15 280.56 461.61 284.97 446.18 289.58 430.93 294.42 415.9 299.48 401.16 304.76 386.75 310.24 372.71 315.91 359.08 321.75 345.9 327.71 333.19 333.78 320.97 339.9 309.25 346.05 298.04 352.17 287.33 358.22 277.13 364.17 267.42 369.97 258.18 375.58 249.4 380.98 241.03 386.14 233.06 391.04 225.45 397.83 214.65 400.01 211.14" stroke-dasharray="57 9" transform="rotate(64.88888888888889, 400, 400)" opacity="0.17"></path><path d="M401.04 220.13C404.34 215.07 414.71 219.96 418.63 228.56Q423.27 239.59 427.66 250.96 431.79 262.67 435.66 274.7 439.27 287.02 442.65 299.62 445.81 312.47 448.79 325.52 451.61 338.75 454.32 352.12 456.94 365.58 459.54 379.09 462.14 392.61 464.8 406.08 467.57 419.46 470.48 432.7 473.57 445.75 476.89 458.56 480.46 471.08 484.31 483.27 488.46 495.09 492.91 506.48 497.67 517.42 502.74 527.87 508.1 537.8 513.73 547.17 519.61 555.98 525.7 564.21 531.96 571.83 538.35 578.86 544.82 585.28 551.31 591.11C555.96 594.95 552.95 607.54 545.78 613.37Q536.92 618.61 528.07 621.51 519.21 621.97 510.36 619.99 501.5 615.62 492.65 609.02 483.79 600.42 474.94 590.12 466.08 578.47 457.23 565.89 448.37 552.8 439.51 539.66 430.66 526.93 421.8 515.06 412.95 504.45 404.09 495.47 395.24 488.44 386.38 483.59 377.52 481.11 368.67 481.06 359.81 483.47 350.96 488.23 342.1 495.2 333.25 504.11 324.39 514.68 315.53 526.52 306.68 539.22 297.82 552.35 288.97 565.45 280.11 578.06 271.26 589.75 262.4 600.1C255.22 607.27 249.72 603.09 252.15 593.52Q255.49 579.89 258.8 565.94 262.11 551.71 265.43 537.28 268.8 522.7 272.25 508.01 275.81 493.3 279.49 478.6 283.33 463.97 287.34 449.47 291.52 435.15 295.9 421.06 300.48 407.23 305.26 393.7 310.23 380.52 315.39 367.72 320.71 355.31 326.17 343.32 331.77 331.76 337.45 320.66 343.2 310.01 348.98 299.82 354.75 290.07 360.48 280.78 366.13 271.91 371.67 263.46 377.07 255.41 382.29 247.73 396.52 226.82 401.04 220.13" stroke-dasharray="71 90" transform="rotate(70.29629629629629, 400, 400)" opacity="0.42"></path><path d="M401.78 229.14C405.07 224.48 414.75 229.18 418.2 237.23Q422.28 247.54 426.13 258.17 429.77 269.1 433.18 280.31 436.39 291.8 439.41 303.54 442.26 315.5 444.96 327.67 447.55 340.01 450.05 352.5 452.5 365.09 454.94 377.77 457.4 390.48 459.91 403.19 462.52 415.86 465.27 428.45 468.17 440.92 471.26 453.23 474.56 465.35 478.11 477.22 481.9 488.81 485.96 500.08 490.28 511 494.88 521.54 499.73 531.67 504.82 541.35 510.15 550.56 515.68 559.29 521.38 567.51 527.22 575.21 533.17 582.39 539.19 589.03C543.54 593.48 540.8 604.13 534.13 607.72Q517.66 610.81 501.19 605.55 484.73 592.58 468.26 573.44 451.79 550.44 435.32 526.35 418.86 504.06 402.39 486.25 385.92 475.06 369.45 471.84 352.99 476.98 336.52 489.85 320.05 508.92 303.58 531.88 287.11 555.98 270.64 578.31C263.97 586.24 258.78 583.41 261.01 573.9Q264.08 560.49 267.14 546.91 270.22 533.19 273.35 519.39 276.53 505.56 279.8 491.73 283.18 477.97 286.68 464.3 290.33 450.77 294.13 437.43 298.1 424.31 302.24 411.44 306.55 398.85 311.04 386.58 315.71 374.64 320.53 363.06 325.5 351.86 330.6 341.05 335.81 330.63 341.12 320.61 346.48 311 351.89 301.8 357.3 292.99 362.69 284.57 368.03 276.52 373.29 268.84 383.38 254.63 393.01 241.32 399.64 232.13 401.78 229.14" stroke-dasharray="84 65" transform="rotate(75.7037037037037, 400, 400)" opacity="0.73"></path><path d="M402.23 238.16C405.47 233.88 414.48 238.38 417.47 245.89Q424.39 265.37 430.57 285.91 436.1 307.42 441.11 329.77 445.79 352.79 450.36 376.29 455.04 400.04 460.06 423.8 465.63 447.31 471.92 470.3 479.06 492.52 487.1 513.71 496.04 533.64 505.8 552.12 516.24 568.96 527.15 584.06C531.16 589.04 528.63 597.8 522.45 599.31Q507.22 598.04 491.99 589.82 476.76 575.53 461.53 556.64 446.3 535.12 431.07 513.19 415.84 493.14 400.61 477.04 385.38 466.57 370.15 462.81 354.92 466.16 339.69 476.26 324.46 492.08 309.23 511.95 293.99 533.84 278.76 555.45C272.59 563.62 267.75 561.78 269.79 552.58Q275.46 526.81 281.27 500.94 287.38 475.28 293.9 450.12 300.94 425.69 308.58 402.22 316.83 379.88 325.66 358.83 335.02 339.14 344.77 320.87 354.78 304.01 364.85 288.52 374.81 274.33 384.47 261.31 397.94 243.73 402.23 238.16" stroke-dasharray="27 29" transform="rotate(81.11111111111111, 400, 400)" opacity="0.08"></path><path d="M402.38 247.2C405.55 243.31 413.85 247.58 416.44 254.53Q422.43 272.53 427.83 291.47 432.72 311.26 437.25 331.81 441.54 353 445.79 374.68 450.17 396.67 454.85 418.79 459.99 440.84 465.74 462.61 472.19 483.89 479.4 504.47 487.38 524.16 496.08 542.76 505.41 560.12 515.24 576.09C518.86 581.47 516.5 588.45 510.82 588.17Q496.82 583.31 482.82 572.95 468.82 558 454.82 539.79 440.82 519.93 426.81 500.17 412.81 482.27 398.81 467.82 384.81 458.08 370.81 453.94 356.8 455.74 342.8 463.34 328.8 476.06 314.8 492.77 300.79 511.99 286.79 532.03C281.12 539.97 276.65 538.8 278.52 530.15Q283.78 506.12 289.24 482.32 295 458.98 301.15 436.28 307.79 414.41 314.94 393.51 322.62 373.69 330.8 355.05 339.44 337.62 348.43 321.43 357.66 306.45 366.99 292.64 376.27 279.93 385.36 268.2 398.24 252.27 402.38 247.2" stroke-dasharray="21 26" transform="rotate(86.51851851851852, 400, 400)" opacity="0.25"></path><path d="M402.25 256.26C405.3 252.73 412.91 256.76 415.11 263.15Q420.26 279.67 424.96 296.99 429.3 315.06 433.37 333.81 437.31 353.15 441.24 372.96 445.31 393.13 449.64 413.5 454.36 433.93 459.58 454.27 465.37 474.34 471.79 493.98 478.85 513.04 486.52 531.35 494.77 548.76 503.5 565.15C506.73 570.77 504.5 576.15 499.32 574.41Q486.53 566.85 473.75 555.14 460.97 540.14 448.18 522.97 435.4 504.91 422.62 487.31 409.83 471.48 397.05 458.6 384.26 449.62 371.48 445.22 358.7 445.73 345.91 451.1 333.13 460.94 320.34 474.51 307.56 490.8 294.77 508.61C289.59 515.96 285.52 515.15 287.24 507.22Q292.14 485.37 297.25 463.96 302.67 443.14 308.45 423.04 314.66 403.77 321.31 385.43 328.41 368.09 335.94 351.78 343.86 336.52 352.08 322.32 360.53 309.14 369.1 296.94 377.67 285.64 386.13 275.16 398.31 260.83 402.25 256.26" stroke-dasharray="36 3" transform="rotate(91.92592592592592, 400, 400)" opacity="0.13"></path><path d="M401.86 265.34C404.76 262.18 411.65 265.94 413.53 271.77Q417.94 286.8 422.02 302.51 425.84 318.86 429.5 335.8 433.09 353.27 436.71 371.19 440.45 389.47 444.43 408 448.73 426.68 453.43 445.4 458.59 464.02 464.25 482.43 470.43 500.5 477.14 518.1 484.33 535.11 491.97 551.43C494.82 557.1 492.7 561.1 488 558.29Q476.43 548.92 464.85 536.6 453.27 522.08 441.69 506.25 430.12 490.11 418.54 474.62 406.96 460.77 395.38 449.39 383.81 441.19 372.23 436.67 360.65 436.11 349.07 439.56 337.49 446.78 325.91 457.35 314.33 470.61 302.76 485.73C298.07 492.19 294.4 491.5 296 484.42Q300.55 465.06 305.33 446.25 310.4 428.07 315.8 410.61 321.56 393.94 327.69 378.11 334.21 363.15 341.08 349.07 348.27 335.89 355.73 323.57 363.4 312.1 371.19 301.42 379.02 291.47 386.8 282.2 398.15 269.43 401.86 265.34" stroke-dasharray="77 92" transform="rotate(97.33333333333333, 400, 400)" opacity="0.52"></path><path d="M401.24 274.43C403.94 271.63 410.13 275.1 411.72 280.37Q415.47 293.9 419 308 422.37 322.63 425.64 337.77 428.89 353.37 432.19 369.38 435.61 385.73 439.22 402.35 443.1 419.18 447.29 436.12 451.84 453.09 456.79 470 462.15 486.76 467.93 503.28 474.13 519.45 480.7 535.2C483.15 540.75 481.15 543.6 476.94 540.1Q466.55 529.79 456.17 517.53 445.79 503.94 435.4 489.7 425.02 475.51 414.63 462.09 404.25 450.11 393.87 440.17 383.48 432.75 373.1 428.25 362.71 426.87 352.33 428.69 341.94 433.61 331.56 441.4 321.17 451.66 310.79 463.88C306.58 469.26 303.35 468.51 304.82 462.38Q309.05 445.68 313.5 429.55 318.2 414.04 323.19 399.19 328.49 385.05 334.09 371.62 340.01 358.92 346.22 346.96 352.69 335.72 359.38 325.18 366.26 315.32 373.26 306.08 380.32 297.43 387.39 289.32 397.81 278.05 401.24 274.43" stroke-dasharray="24 75" transform="rotate(102.74074074074075, 400, 400)" opacity="0.90"></path><path d="M400.42 283.55C402.89 281.1 408.37 284.26 409.7 288.95Q412.88 300.98 415.93 313.47 418.88 326.4 421.79 339.74 424.71 353.48 427.69 367.57 430.77 381.97 434.02 396.64 437.47 411.52 441.16 426.57 445.13 441.73 449.4 456.93 453.99 472.11 458.91 487.2 464.16 502.15 469.72 516.87C471.79 522.1 469.9 524.06 466.17 520.24Q456.96 509.78 447.76 498.17 438.56 485.87 429.36 473.37 420.16 461.17 410.95 449.73 401.75 439.52 392.55 430.95 383.34 424.34 374.14 419.96 364.94 417.98 355.74 418.49 346.53 421.45 337.33 426.76 328.13 434.21 318.92 443.49C315.19 447.7 312.39 446.79 313.74 441.64Q317.65 427.66 321.75 414.2 326.07 401.29 330.64 388.95 335.45 377.2 340.51 366.04 345.81 355.47 351.35 345.48 357.1 336.05 363.04 327.17 369.13 318.81 375.33 310.94 381.61 303.52 387.91 296.51 397.31 286.71 400.42 283.55" stroke-dasharray="75 42" transform="rotate(108.14814814814814, 400, 400)" opacity="0.77"></path><path d="M399.45 292.69C401.66 290.57 406.43 293.4 407.54 297.53Q410.22 308.05 412.84 318.94 415.41 330.17 417.97 341.74 420.56 353.62 423.21 365.8 425.95 378.24 428.82 390.93 431.84 403.83 435.04 416.91 438.45 430.12 442.08 443.44 445.95 456.82 450.06 470.21 454.42 483.59 459.03 496.89C460.75 501.66 458.98 502.97 455.73 499.17Q439.66 478.75 423.6 457.35 407.54 437.55 391.47 421.74 375.41 411.8 359.34 408.94 343.28 413.5 327.21 424.94C323.95 427.98 321.57 426.85 322.82 422.66Q326.38 411.32 330.12 400.43 334.03 389.99 338.14 380.02 342.44 370.5 346.94 361.43 351.62 352.82 356.49 344.65 361.51 336.9 366.69 329.55 377.43 316.17 388.39 303.79 396.69 295.4 399.45 292.69" stroke-dasharray="58 47" transform="rotate(113.55555555555556, 400, 400)" opacity="0.33"></path><path d="M398.36 301.84C400.27 300.06 404.36 302.56 405.28 306.09Q409.74 324.39 414.18 343.75 418.74 364.09 423.61 385.3 428.93 407.25 434.82 429.79 441.38 452.71 448.66 475.83C450.04 479.98 448.44 480.86 445.65 477.36Q431.9 459.47 418.16 441.67 404.42 425.54 390.67 412.52 376.93 403.75 363.18 400.01 349.44 401.63 335.69 408.48C332.9 410.46 330.93 409.12 332.05 405.85Q338.6 388.48 345.71 372.48 353.39 357.84 361.62 344.48 370.35 332.33 379.46 321.26 393.61 306.5 398.36 301.84" stroke-dasharray="95 4" transform="rotate(118.96296296296296, 400, 400)" opacity="0.35"></path><path d="M397.23 311.02C398.82 309.55 402.21 311.68 402.96 314.64Q406.67 329.85 410.42 345.81 414.3 362.49 418.41 379.84 422.83 397.77 427.63 416.22 432.88 435.07 438.6 454.24C439.68 457.7 438.25 458.3 435.93 455.32Q424.49 440.55 413.05 426.39 401.61 413.71 390.17 403.31 378.73 395.8 367.29 391.67 355.85 391.16 344.41 394.31C342.09 395.38 340.51 393.91 341.49 391.47Q347.21 378.47 353.33 366.41 359.85 355.27 366.75 344.99 374.01 335.5 381.55 326.73 393.27 314.81 397.23 311.02" stroke-dasharray="33 5" transform="rotate(124.37037037037037, 400, 400)" opacity="0.64"></path><path d="M396.07 320.21C397.34 319.07 400.04 320.81 400.65 323.18Q403.65 335.3 406.71 347.93 409.88 361.03 413.21 374.59 416.74 388.58 420.5 402.95 424.53 417.68 428.85 432.69C429.66 435.42 428.44 435.86 426.58 433.51Q417.44 422.17 408.29 411.54 399.14 402.06 389.99 394.08 380.84 387.94 371.7 383.87 362.55 382.04 353.4 382.5C351.54 382.88 350.33 381.4 351.16 379.68Q355.96 370.46 361.01 361.82 366.33 353.73 371.89 346.16 377.67 339.07 383.65 332.41 392.94 323.18 396.07 320.21" stroke-dasharray="93 44" transform="rotate(129.77777777777777, 400, 400)" opacity="0.97"></path><path d="M394.96 329.43C395.91 328.58 397.93 329.92 398.39 331.7Q403.05 350.11 408.01 369.64 413.41 390.21 419.37 411.73C419.94 413.71 418.99 414.07 417.59 412.41Q403.86 397.17 390.14 384.86 376.41 376.58 362.68 373.04C361.28 372.97 360.43 371.62 361.09 370.49Q368.77 358.67 377.02 347.99 390.38 333.86 394.96 329.43" stroke-dasharray="5 68" transform="rotate(135.1851851851852, 400, 400)" opacity="0.63"></path><path d="M393.96 338.67C394.57 338.12 395.91 339.03 396.23 340.21Q399.44 352.38 402.81 365.06 406.37 378.24 410.17 391.89C410.52 393.14 409.85 393.44 408.92 392.44Q399.76 383.32 390.6 375.65 381.44 369.75 372.28 365.83C371.35 365.55 370.8 364.49 371.27 363.84Q388.12 344.67 393.96 338.67" stroke-dasharray="80 3" transform="rotate(140.59259259259258, 400, 400)" opacity="0.50"></path></g></svg>