<svg xmlns="http://www.w3.org/2000/svg" version="1.1" xmlns:xlink="http://www.w3.org/1999/xlink" xmlns:svgjs="http://svgjs.dev/svgjs" viewBox="0 0 800 800" opacity="0.9" width="800" height="800"><g stroke-width="2.25" stroke="hsla(306, 60%, 38%, 1.00)" fill="none"><rect width="10.526315789473685" height="10.526315789473685" x="-5.2631578947368425" y="-5.2631578947368425" transform="rotate(45, 0, 0)"></rect><rect width="10.526315789473685" height="10.526315789473685" x="56.2753036437247" y="-5.2631578947368425" transform="rotate(45, 61.53846153846154, 0)"></rect><rect width="10.526315789473685" height="10.526315789473685" x="117.81376518218624" y="-5.2631578947368425" transform="rotate(45, 123.07692307692308, 0)"></rect><rect width="10.526315789473685" height="10.526315789473685" x="179.35222672064776" y="-5.2631578947368425" transform="rotate(45, 184.6153846153846, 0)"></rect><rect width="10.526315789473685" height="10.526315789473685" x="240.8906882591093" y="-5.2631578947368425" transform="rotate(45, 246.15384615384616, 0)"></rect><rect width="10.526315789473685" height="10.526315789473685" x="302.42914979757086" y="-5.2631578947368425" transform="rotate(45, 307.6923076923077, 0)"></rect><rect width="10.526315789473685" height="10.526315789473685" x="363.9676113360324" y="-5.2631578947368425" transform="rotate(45, 369.2307692307692, 0)"></rect><rect width="10.526315789473685" height="10.526315789473685" x="425.50607287449395" y="-5.2631578947368425" transform="rotate(45, 430.7692307692308, 0)"></rect><rect width="10.526315789473685" height="10.526315789473685" x="487.0445344129555" y="-5.2631578947368425" transform="rotate(45, 492.3076923076923, 0)"></rect><rect width="10.526315789473685" height="10.526315789473685" x="548.5829959514169" y="-5.2631578947368425" transform="rotate(45, 553.8461538461538, 0)"></rect><rect width="10.526315789473685" height="10.526315789473685" x="610.1214574898785" y="-5.2631578947368425" transform="rotate(45, 615.3846153846154, 0)"></rect><rect width="10.526315789473685" height="10.526315789473685" x="671.65991902834" y="-5.2631578947368425" transform="rotate(45, 676.9230769230769, 0)"></rect><rect width="10.526315789473685" height="10.526315789473685" x="733.1983805668016" y="-5.2631578947368425" transform="rotate(45, 738.4615384615385, 0)"></rect><rect width="10.526315789473685" height="10.526315789473685" x="794.7368421052631" y="-5.2631578947368425" transform="rotate(45, 800, 0)"></rect><rect width="10.526315789473685" height="10.526315789473685" x="-5.2631578947368425" y="61.40350877192983" transform="rotate(45, 0, 66.66666666666667)"></rect><rect width="10.526315789473685" height="10.526315789473685" x="56.2753036437247" y="61.40350877192983" transform="rotate(45, 61.53846153846154, 66.66666666666667)"></rect><rect width="10.526315789473685" height="10.526315789473685" x="117.81376518218624" y="61.40350877192983" transform="rotate(45, 123.07692307692308, 66.66666666666667)"></rect><rect width="10.526315789473685" height="10.526315789473685" x="179.35222672064776" y="61.40350877192983" transform="rotate(45, 184.6153846153846, 66.66666666666667)"></rect><rect width="10.526315789473685" height="10.526315789473685" x="240.8906882591093" y="61.40350877192983" transform="rotate(45, 246.15384615384616, 66.66666666666667)"></rect><rect width="10.526315789473685" height="10.526315789473685" x="302.42914979757086" y="61.40350877192983" transform="rotate(45, 307.6923076923077, 66.66666666666667)"></rect><rect width="10.526315789473685" height="10.526315789473685" x="363.9676113360324" y="61.40350877192983" transform="rotate(45, 369.2307692307692, 66.66666666666667)"></rect><rect width="10.526315789473685" height="10.526315789473685" x="425.50607287449395" y="61.40350877192983" fill="hsla(306, 60%, 38%, 1.00)" stroke="none" transform="rotate(45, 430.7692307692308, 66.66666666666667)"></rect><rect width="10.526315789473685" height="10.526315789473685" x="487.0445344129555" y="61.40350877192983" transform="rotate(45, 492.3076923076923, 66.66666666666667)"></rect><rect width="10.526315789473685" height="10.526315789473685" x="548.5829959514169" y="61.40350877192983" transform="rotate(45, 553.8461538461538, 66.66666666666667)"></rect><rect width="10.526315789473685" height="10.526315789473685" x="610.1214574898785" y="61.40350877192983" fill="hsla(306, 60%, 38%, 1.00)" stroke="none" transform="rotate(45, 615.3846153846154, 66.66666666666667)"></rect><rect width="10.526315789473685" height="10.526315789473685" x="671.65991902834" y="61.40350877192983" transform="rotate(45, 676.9230769230769, 66.66666666666667)"></rect><rect width="10.526315789473685" height="10.526315789473685" x="733.1983805668016" y="61.40350877192983" transform="rotate(45, 738.4615384615385, 66.66666666666667)"></rect><rect width="10.526315789473685" height="10.526315789473685" x="794.7368421052631" y="61.40350877192983" transform="rotate(45, 800, 66.66666666666667)"></rect><rect width="10.526315789473685" height="10.526315789473685" x="-5.2631578947368425" y="128.0701754385965" transform="rotate(45, 0, 133.33333333333334)"></rect><rect width="10.526315789473685" height="10.526315789473685" x="56.2753036437247" y="128.0701754385965" transform="rotate(45, 61.53846153846154, 133.33333333333334)"></rect><rect width="10.526315789473685" height="10.526315789473685" x="117.81376518218624" y="128.0701754385965" transform="rotate(45, 123.07692307692308, 133.33333333333334)"></rect><rect width="10.526315789473685" height="10.526315789473685" x="179.35222672064776" y="128.0701754385965" transform="rotate(45, 184.6153846153846, 133.33333333333334)"></rect><rect width="10.526315789473685" height="10.526315789473685" x="240.8906882591093" y="128.0701754385965" transform="rotate(45, 246.15384615384616, 133.33333333333334)"></rect><rect width="10.526315789473685" height="10.526315789473685" x="302.42914979757086" y="128.0701754385965" transform="rotate(45, 307.6923076923077, 133.33333333333334)"></rect><rect width="10.526315789473685" height="10.526315789473685" x="363.9676113360324" y="128.0701754385965" fill="hsla(306, 60%, 38%, 1.00)" stroke="none" transform="rotate(45, 369.2307692307692, 133.33333333333334)"></rect><rect width="10.526315789473685" height="10.526315789473685" x="425.50607287449395" y="128.0701754385965" transform="rotate(45, 430.7692307692308, 133.33333333333334)"></rect><rect width="10.526315789473685" height="10.526315789473685" x="487.0445344129555" y="128.0701754385965" transform="rotate(45, 492.3076923076923, 133.33333333333334)"></rect><rect width="10.526315789473685" height="10.526315789473685" x="548.5829959514169" y="128.0701754385965" transform="rotate(45, 553.8461538461538, 133.33333333333334)"></rect><rect width="10.526315789473685" height="10.526315789473685" x="610.1214574898785" y="128.0701754385965" transform="rotate(45, 615.3846153846154, 133.33333333333334)"></rect><rect width="10.526315789473685" height="10.526315789473685" x="671.65991902834" y="128.0701754385965" transform="rotate(45, 676.9230769230769, 133.33333333333334)"></rect><rect width="10.526315789473685" height="10.526315789473685" x="733.1983805668016" y="128.0701754385965" transform="rotate(45, 738.4615384615385, 133.33333333333334)"></rect><rect width="10.526315789473685" height="10.526315789473685" x="794.7368421052631" y="128.0701754385965" transform="rotate(45, 800, 133.33333333333334)"></rect><rect width="10.526315789473685" height="10.526315789473685" x="-5.2631578947368425" y="194.73684210526315" transform="rotate(45, 0, 200)"></rect><rect width="10.526315789473685" height="10.526315789473685" x="56.2753036437247" y="194.73684210526315" transform="rotate(45, 61.53846153846154, 200)"></rect><rect width="10.526315789473685" height="10.526315789473685" x="117.81376518218624" y="194.73684210526315" transform="rotate(45, 123.07692307692308, 200)"></rect><rect width="10.526315789473685" height="10.526315789473685" x="179.35222672064776" y="194.73684210526315" transform="rotate(45, 184.6153846153846, 200)"></rect><rect width="10.526315789473685" height="10.526315789473685" x="240.8906882591093" y="194.73684210526315" transform="rotate(45, 246.15384615384616, 200)"></rect><rect width="10.526315789473685" height="10.526315789473685" x="302.42914979757086" y="194.73684210526315" transform="rotate(45, 307.6923076923077, 200)"></rect><rect width="10.526315789473685" height="10.526315789473685" x="363.9676113360324" y="194.73684210526315" fill="hsla(306, 60%, 38%, 1.00)" stroke="none" transform="rotate(45, 369.2307692307692, 200)"></rect><rect width="10.526315789473685" height="10.526315789473685" x="425.50607287449395" y="194.73684210526315" transform="rotate(45, 430.7692307692308, 200)"></rect><rect width="10.526315789473685" height="10.526315789473685" x="487.0445344129555" y="194.73684210526315" transform="rotate(45, 492.3076923076923, 200)"></rect><rect width="10.526315789473685" height="10.526315789473685" x="548.5829959514169" y="194.73684210526315" fill="hsla(306, 60%, 38%, 1.00)" stroke="none" transform="rotate(45, 553.8461538461538, 200)"></rect><rect width="10.526315789473685" height="10.526315789473685" x="610.1214574898785" y="194.73684210526315" transform="rotate(45, 615.3846153846154, 200)"></rect><rect width="10.526315789473685" height="10.526315789473685" x="671.65991902834" y="194.73684210526315" transform="rotate(45, 676.9230769230769, 200)"></rect><rect width="10.526315789473685" height="10.526315789473685" x="733.1983805668016" y="194.73684210526315" transform="rotate(45, 738.4615384615385, 200)"></rect><rect width="10.526315789473685" height="10.526315789473685" x="794.7368421052631" y="194.73684210526315" transform="rotate(45, 800, 200)"></rect><rect width="10.526315789473685" height="10.526315789473685" x="-5.2631578947368425" y="261.40350877192986" transform="rotate(45, 0, 266.6666666666667)"></rect><rect width="10.526315789473685" height="10.526315789473685" x="56.2753036437247" y="261.40350877192986" transform="rotate(45, 61.53846153846154, 266.6666666666667)"></rect><rect width="10.526315789473685" height="10.526315789473685" x="117.81376518218624" y="261.40350877192986" transform="rotate(45, 123.07692307692308, 266.6666666666667)"></rect><rect width="10.526315789473685" height="10.526315789473685" x="179.35222672064776" y="261.40350877192986" transform="rotate(45, 184.6153846153846, 266.6666666666667)"></rect><rect width="10.526315789473685" height="10.526315789473685" x="240.8906882591093" y="261.40350877192986" fill="hsla(306, 60%, 38%, 1.00)" stroke="none" transform="rotate(45, 246.15384615384616, 266.6666666666667)"></rect><rect width="10.526315789473685" height="10.526315789473685" x="302.42914979757086" y="261.40350877192986" transform="rotate(45, 307.6923076923077, 266.6666666666667)"></rect><rect width="10.526315789473685" height="10.526315789473685" x="363.9676113360324" y="261.40350877192986" transform="rotate(45, 369.2307692307692, 266.6666666666667)"></rect><rect width="10.526315789473685" height="10.526315789473685" x="425.50607287449395" y="261.40350877192986" transform="rotate(45, 430.7692307692308, 266.6666666666667)"></rect><rect width="10.526315789473685" height="10.526315789473685" x="487.0445344129555" y="261.40350877192986" transform="rotate(45, 492.3076923076923, 266.6666666666667)"></rect><rect width="10.526315789473685" height="10.526315789473685" x="548.5829959514169" y="261.40350877192986" transform="rotate(45, 553.8461538461538, 266.6666666666667)"></rect><rect width="10.526315789473685" height="10.526315789473685" x="610.1214574898785" y="261.40350877192986" transform="rotate(45, 615.3846153846154, 266.6666666666667)"></rect><rect width="10.526315789473685" height="10.526315789473685" x="671.65991902834" y="261.40350877192986" transform="rotate(45, 676.9230769230769, 266.6666666666667)"></rect><rect width="10.526315789473685" height="10.526315789473685" x="733.1983805668016" y="261.40350877192986" transform="rotate(45, 738.4615384615385, 266.6666666666667)"></rect><rect width="10.526315789473685" height="10.526315789473685" x="794.7368421052631" y="261.40350877192986" transform="rotate(45, 800, 266.6666666666667)"></rect><rect width="10.526315789473685" height="10.526315789473685" x="-5.2631578947368425" y="328.07017543859655" transform="rotate(45, 0, 333.33333333333337)"></rect><rect width="10.526315789473685" height="10.526315789473685" x="56.2753036437247" y="328.07017543859655" transform="rotate(45, 61.53846153846154, 333.33333333333337)"></rect><rect width="10.526315789473685" height="10.526315789473685" x="117.81376518218624" y="328.07017543859655" transform="rotate(45, 123.07692307692308, 333.33333333333337)"></rect><rect width="10.526315789473685" height="10.526315789473685" x="179.35222672064776" y="328.07017543859655" transform="rotate(45, 184.6153846153846, 333.33333333333337)"></rect><rect width="10.526315789473685" height="10.526315789473685" x="240.8906882591093" y="328.07017543859655" transform="rotate(45, 246.15384615384616, 333.33333333333337)"></rect><rect width="10.526315789473685" height="10.526315789473685" x="302.42914979757086" y="328.07017543859655" transform="rotate(45, 307.6923076923077, 333.33333333333337)"></rect><rect width="10.526315789473685" height="10.526315789473685" x="363.9676113360324" y="328.07017543859655" transform="rotate(45, 369.2307692307692, 333.33333333333337)"></rect><rect width="10.526315789473685" height="10.526315789473685" x="425.50607287449395" y="328.07017543859655" fill="hsla(306, 60%, 38%, 1.00)" stroke="none" transform="rotate(45, 430.7692307692308, 333.33333333333337)"></rect><rect width="10.526315789473685" height="10.526315789473685" x="487.0445344129555" y="328.07017543859655" transform="rotate(45, 492.3076923076923, 333.33333333333337)"></rect><rect width="10.526315789473685" height="10.526315789473685" x="548.5829959514169" y="328.07017543859655" fill="hsla(306, 60%, 38%, 1.00)" stroke="none" transform="rotate(45, 553.8461538461538, 333.33333333333337)"></rect><rect width="10.526315789473685" height="10.526315789473685" x="610.1214574898785" y="328.07017543859655" fill="hsla(306, 60%, 38%, 1.00)" stroke="none" transform="rotate(45, 615.3846153846154, 333.33333333333337)"></rect><rect width="10.526315789473685" height="10.526315789473685" x="671.65991902834" y="328.07017543859655" fill="hsla(306, 60%, 38%, 1.00)" stroke="none" transform="rotate(45, 676.9230769230769, 333.33333333333337)"></rect><rect width="10.526315789473685" height="10.526315789473685" x="733.1983805668016" y="328.07017543859655" fill="hsla(306, 60%, 38%, 1.00)" stroke="none" transform="rotate(45, 738.4615384615385, 333.33333333333337)"></rect><rect width="10.526315789473685" height="10.526315789473685" x="794.7368421052631" y="328.07017543859655" transform="rotate(45, 800, 333.33333333333337)"></rect><rect width="10.526315789473685" height="10.526315789473685" x="-5.2631578947368425" y="394.73684210526324" transform="rotate(45, 0, 400.00000000000006)"></rect><rect width="10.526315789473685" height="10.526315789473685" x="56.2753036437247" y="394.73684210526324" transform="rotate(45, 61.53846153846154, 400.00000000000006)"></rect><rect width="10.526315789473685" height="10.526315789473685" x="117.81376518218624" y="394.73684210526324" transform="rotate(45, 123.07692307692308, 400.00000000000006)"></rect><rect width="10.526315789473685" height="10.526315789473685" x="179.35222672064776" y="394.73684210526324" transform="rotate(45, 184.6153846153846, 400.00000000000006)"></rect><rect width="10.526315789473685" height="10.526315789473685" x="240.8906882591093" y="394.73684210526324" transform="rotate(45, 246.15384615384616, 400.00000000000006)"></rect><rect width="10.526315789473685" height="10.526315789473685" x="302.42914979757086" y="394.73684210526324" fill="hsla(306, 60%, 38%, 1.00)" stroke="none" transform="rotate(45, 307.6923076923077, 400.00000000000006)"></rect><rect width="10.526315789473685" height="10.526315789473685" x="363.9676113360324" y="394.73684210526324" fill="hsla(306, 60%, 38%, 1.00)" stroke="none" transform="rotate(45, 369.2307692307692, 400.00000000000006)"></rect><rect width="10.526315789473685" height="10.526315789473685" x="425.50607287449395" y="394.73684210526324" fill="hsla(306, 60%, 38%, 1.00)" stroke="none" transform="rotate(45, 430.7692307692308, 400.00000000000006)"></rect><rect width="10.526315789473685" height="10.526315789473685" x="487.0445344129555" y="394.73684210526324" transform="rotate(45, 492.3076923076923, 400.00000000000006)"></rect><rect width="10.526315789473685" height="10.526315789473685" x="548.5829959514169" y="394.73684210526324" transform="rotate(45, 553.8461538461538, 400.00000000000006)"></rect><rect width="10.526315789473685" height="10.526315789473685" x="610.1214574898785" y="394.73684210526324" transform="rotate(45, 615.3846153846154, 400.00000000000006)"></rect><rect width="10.526315789473685" height="10.526315789473685" x="671.65991902834" y="394.73684210526324" transform="rotate(45, 676.9230769230769, 400.00000000000006)"></rect><rect width="10.526315789473685" height="10.526315789473685" x="733.1983805668016" y="394.73684210526324" transform="rotate(45, 738.4615384615385, 400.00000000000006)"></rect><rect width="10.526315789473685" height="10.526315789473685" x="794.7368421052631" y="394.73684210526324" transform="rotate(45, 800, 400.00000000000006)"></rect><rect width="10.526315789473685" height="10.526315789473685" x="-5.2631578947368425" y="461.4035087719299" transform="rotate(45, 0, 466.66666666666674)"></rect><rect width="10.526315789473685" height="10.526315789473685" x="56.2753036437247" y="461.4035087719299" fill="hsla(306, 60%, 38%, 1.00)" stroke="none" transform="rotate(45, 61.53846153846154, 466.66666666666674)"></rect><rect width="10.526315789473685" height="10.526315789473685" x="117.81376518218624" y="461.4035087719299" fill="hsla(306, 60%, 38%, 1.00)" stroke="none" transform="rotate(45, 123.07692307692308, 466.66666666666674)"></rect><rect width="10.526315789473685" height="10.526315789473685" x="179.35222672064776" y="461.4035087719299" fill="hsla(306, 60%, 38%, 1.00)" stroke="none" transform="rotate(45, 184.6153846153846, 466.66666666666674)"></rect><rect width="10.526315789473685" height="10.526315789473685" x="240.8906882591093" y="461.4035087719299" transform="rotate(45, 246.15384615384616, 466.66666666666674)"></rect><rect width="10.526315789473685" height="10.526315789473685" x="302.42914979757086" y="461.4035087719299" transform="rotate(45, 307.6923076923077, 466.66666666666674)"></rect><rect width="10.526315789473685" height="10.526315789473685" x="363.9676113360324" y="461.4035087719299" fill="hsla(306, 60%, 38%, 1.00)" stroke="none" transform="rotate(45, 369.2307692307692, 466.66666666666674)"></rect><rect width="10.526315789473685" height="10.526315789473685" x="425.50607287449395" y="461.4035087719299" transform="rotate(45, 430.7692307692308, 466.66666666666674)"></rect><rect width="10.526315789473685" height="10.526315789473685" x="487.0445344129555" y="461.4035087719299" transform="rotate(45, 492.3076923076923, 466.66666666666674)"></rect><rect width="10.526315789473685" height="10.526315789473685" x="548.5829959514169" y="461.4035087719299" transform="rotate(45, 553.8461538461538, 466.66666666666674)"></rect><rect width="10.526315789473685" height="10.526315789473685" x="610.1214574898785" y="461.4035087719299" transform="rotate(45, 615.3846153846154, 466.66666666666674)"></rect><rect width="10.526315789473685" height="10.526315789473685" x="671.65991902834" y="461.4035087719299" transform="rotate(45, 676.9230769230769, 466.66666666666674)"></rect><rect width="10.526315789473685" height="10.526315789473685" x="733.1983805668016" y="461.4035087719299" transform="rotate(45, 738.4615384615385, 466.66666666666674)"></rect><rect width="10.526315789473685" height="10.526315789473685" x="794.7368421052631" y="461.4035087719299" transform="rotate(45, 800, 466.66666666666674)"></rect><rect width="10.526315789473685" height="10.526315789473685" x="-5.2631578947368425" y="528.0701754385965" transform="rotate(45, 0, 533.3333333333334)"></rect><rect width="10.526315789473685" height="10.526315789473685" x="56.2753036437247" y="528.0701754385965" transform="rotate(45, 61.53846153846154, 533.3333333333334)"></rect><rect width="10.526315789473685" height="10.526315789473685" x="117.81376518218624" y="528.0701754385965" transform="rotate(45, 123.07692307692308, 533.3333333333334)"></rect><rect width="10.526315789473685" height="10.526315789473685" x="179.35222672064776" y="528.0701754385965" transform="rotate(45, 184.6153846153846, 533.3333333333334)"></rect><rect width="10.526315789473685" height="10.526315789473685" x="240.8906882591093" y="528.0701754385965" transform="rotate(45, 246.15384615384616, 533.3333333333334)"></rect><rect width="10.526315789473685" height="10.526315789473685" x="302.42914979757086" y="528.0701754385965" fill="hsla(306, 60%, 38%, 1.00)" stroke="none" transform="rotate(45, 307.6923076923077, 533.3333333333334)"></rect><rect width="10.526315789473685" height="10.526315789473685" x="363.9676113360324" y="528.0701754385965" fill="hsla(306, 60%, 38%, 1.00)" stroke="none" transform="rotate(45, 369.2307692307692, 533.3333333333334)"></rect><rect width="10.526315789473685" height="10.526315789473685" x="425.50607287449395" y="528.0701754385965" fill="hsla(306, 60%, 38%, 1.00)" stroke="none" transform="rotate(45, 430.7692307692308, 533.3333333333334)"></rect><rect width="10.526315789473685" height="10.526315789473685" x="487.0445344129555" y="528.0701754385965" transform="rotate(45, 492.3076923076923, 533.3333333333334)"></rect><rect width="10.526315789473685" height="10.526315789473685" x="548.5829959514169" y="528.0701754385965" fill="hsla(306, 60%, 38%, 1.00)" stroke="none" transform="rotate(45, 553.8461538461538, 533.3333333333334)"></rect><rect width="10.526315789473685" height="10.526315789473685" x="610.1214574898785" y="528.0701754385965" transform="rotate(45, 615.3846153846154, 533.3333333333334)"></rect><rect width="10.526315789473685" height="10.526315789473685" x="671.65991902834" y="528.0701754385965" transform="rotate(45, 676.9230769230769, 533.3333333333334)"></rect><rect width="10.526315789473685" height="10.526315789473685" x="733.1983805668016" y="528.0701754385965" fill="hsla(306, 60%, 38%, 1.00)" stroke="none" transform="rotate(45, 738.4615384615385, 533.3333333333334)"></rect><rect width="10.526315789473685" height="10.526315789473685" x="794.7368421052631" y="528.0701754385965" transform="rotate(45, 800, 533.3333333333334)"></rect><rect width="10.526315789473685" height="10.526315789473685" x="-5.2631578947368425" y="594.7368421052631" transform="rotate(45, 0, 600)"></rect><rect width="10.526315789473685" height="10.526315789473685" x="56.2753036437247" y="594.7368421052631" transform="rotate(45, 61.53846153846154, 600)"></rect><rect width="10.526315789473685" height="10.526315789473685" x="117.81376518218624" y="594.7368421052631" transform="rotate(45, 123.07692307692308, 600)"></rect><rect width="10.526315789473685" height="10.526315789473685" x="179.35222672064776" y="594.7368421052631" transform="rotate(45, 184.6153846153846, 600)"></rect><rect width="10.526315789473685" height="10.526315789473685" x="240.8906882591093" y="594.7368421052631" fill="hsla(306, 60%, 38%, 1.00)" stroke="none" transform="rotate(45, 246.15384615384616, 600)"></rect><rect width="10.526315789473685" height="10.526315789473685" x="302.42914979757086" y="594.7368421052631" transform="rotate(45, 307.6923076923077, 600)"></rect><rect width="10.526315789473685" height="10.526315789473685" x="363.9676113360324" y="594.7368421052631" transform="rotate(45, 369.2307692307692, 600)"></rect><rect width="10.526315789473685" height="10.526315789473685" x="425.50607287449395" y="594.7368421052631" transform="rotate(45, 430.7692307692308, 600)"></rect><rect width="10.526315789473685" height="10.526315789473685" x="487.0445344129555" y="594.7368421052631" transform="rotate(45, 492.3076923076923, 600)"></rect><rect width="10.526315789473685" height="10.526315789473685" x="548.5829959514169" y="594.7368421052631" fill="hsla(306, 60%, 38%, 1.00)" stroke="none" transform="rotate(45, 553.8461538461538, 600)"></rect><rect width="10.526315789473685" height="10.526315789473685" x="610.1214574898785" y="594.7368421052631" transform="rotate(45, 615.3846153846154, 600)"></rect><rect width="10.526315789473685" height="10.526315789473685" x="671.65991902834" y="594.7368421052631" transform="rotate(45, 676.9230769230769, 600)"></rect><rect width="10.526315789473685" height="10.526315789473685" x="733.1983805668016" y="594.7368421052631" transform="rotate(45, 738.4615384615385, 600)"></rect><rect width="10.526315789473685" height="10.526315789473685" x="794.7368421052631" y="594.7368421052631" transform="rotate(45, 800, 600)"></rect><rect width="10.526315789473685" height="10.526315789473685" x="-5.2631578947368425" y="661.4035087719298" transform="rotate(45, 0, 666.6666666666666)"></rect><rect width="10.526315789473685" height="10.526315789473685" x="56.2753036437247" y="661.4035087719298" transform="rotate(45, 61.53846153846154, 666.6666666666666)"></rect><rect width="10.526315789473685" height="10.526315789473685" x="117.81376518218624" y="661.4035087719298" transform="rotate(45, 123.07692307692308, 666.6666666666666)"></rect><rect width="10.526315789473685" height="10.526315789473685" x="179.35222672064776" y="661.4035087719298" fill="hsla(306, 60%, 38%, 1.00)" stroke="none" transform="rotate(45, 184.6153846153846, 666.6666666666666)"></rect><rect width="10.526315789473685" height="10.526315789473685" x="240.8906882591093" y="661.4035087719298" fill="hsla(306, 60%, 38%, 1.00)" stroke="none" transform="rotate(45, 246.15384615384616, 666.6666666666666)"></rect><rect width="10.526315789473685" height="10.526315789473685" x="302.42914979757086" y="661.4035087719298" transform="rotate(45, 307.6923076923077, 666.6666666666666)"></rect><rect width="10.526315789473685" height="10.526315789473685" x="363.9676113360324" y="661.4035087719298" fill="hsla(306, 60%, 38%, 1.00)" stroke="none" transform="rotate(45, 369.2307692307692, 666.6666666666666)"></rect><rect width="10.526315789473685" height="10.526315789473685" x="425.50607287449395" y="661.4035087719298" transform="rotate(45, 430.7692307692308, 666.6666666666666)"></rect><rect width="10.526315789473685" height="10.526315789473685" x="487.0445344129555" y="661.4035087719298" transform="rotate(45, 492.3076923076923, 666.6666666666666)"></rect><rect width="10.526315789473685" height="10.526315789473685" x="548.5829959514169" y="661.4035087719298" transform="rotate(45, 553.8461538461538, 666.6666666666666)"></rect><rect width="10.526315789473685" height="10.526315789473685" x="610.1214574898785" y="661.4035087719298" transform="rotate(45, 615.3846153846154, 666.6666666666666)"></rect><rect width="10.526315789473685" height="10.526315789473685" x="671.65991902834" y="661.4035087719298" transform="rotate(45, 676.9230769230769, 666.6666666666666)"></rect><rect width="10.526315789473685" height="10.526315789473685" x="733.1983805668016" y="661.4035087719298" transform="rotate(45, 738.4615384615385, 666.6666666666666)"></rect><rect width="10.526315789473685" height="10.526315789473685" x="794.7368421052631" y="661.4035087719298" transform="rotate(45, 800, 666.6666666666666)"></rect><rect width="10.526315789473685" height="10.526315789473685" x="-5.2631578947368425" y="728.0701754385964" transform="rotate(45, 0, 733.3333333333333)"></rect><rect width="10.526315789473685" height="10.526315789473685" x="56.2753036437247" y="728.0701754385964" transform="rotate(45, 61.53846153846154, 733.3333333333333)"></rect><rect width="10.526315789473685" height="10.526315789473685" x="117.81376518218624" y="728.0701754385964" fill="hsla(306, 60%, 38%, 1.00)" stroke="none" transform="rotate(45, 123.07692307692308, 733.3333333333333)"></rect><rect width="10.526315789473685" height="10.526315789473685" x="179.35222672064776" y="728.0701754385964" transform="rotate(45, 184.6153846153846, 733.3333333333333)"></rect><rect width="10.526315789473685" height="10.526315789473685" x="240.8906882591093" y="728.0701754385964" transform="rotate(45, 246.15384615384616, 733.3333333333333)"></rect><rect width="10.526315789473685" height="10.526315789473685" x="302.42914979757086" y="728.0701754385964" fill="hsla(306, 60%, 38%, 1.00)" stroke="none" transform="rotate(45, 307.6923076923077, 733.3333333333333)"></rect><rect width="10.526315789473685" height="10.526315789473685" x="363.9676113360324" y="728.0701754385964" fill="hsla(306, 60%, 38%, 1.00)" stroke="none" transform="rotate(45, 369.2307692307692, 733.3333333333333)"></rect><rect width="10.526315789473685" height="10.526315789473685" x="425.50607287449395" y="728.0701754385964" transform="rotate(45, 430.7692307692308, 733.3333333333333)"></rect><rect width="10.526315789473685" height="10.526315789473685" x="487.0445344129555" y="728.0701754385964" fill="hsla(306, 60%, 38%, 1.00)" stroke="none" transform="rotate(45, 492.3076923076923, 733.3333333333333)"></rect><rect width="10.526315789473685" height="10.526315789473685" x="548.5829959514169" y="728.0701754385964" fill="hsla(306, 60%, 38%, 1.00)" stroke="none" transform="rotate(45, 553.8461538461538, 733.3333333333333)"></rect><rect width="10.526315789473685" height="10.526315789473685" x="610.1214574898785" y="728.0701754385964" transform="rotate(45, 615.3846153846154, 733.3333333333333)"></rect><rect width="10.526315789473685" height="10.526315789473685" x="671.65991902834" y="728.0701754385964" transform="rotate(45, 676.9230769230769, 733.3333333333333)"></rect><rect width="10.526315789473685" height="10.526315789473685" x="733.1983805668016" y="728.0701754385964" fill="hsla(306, 60%, 38%, 1.00)" stroke="none" transform="rotate(45, 738.4615384615385, 733.3333333333333)"></rect><rect width="10.526315789473685" height="10.526315789473685" x="794.7368421052631" y="728.0701754385964" transform="rotate(45, 800, 733.3333333333333)"></rect><rect width="10.526315789473685" height="10.526315789473685" x="-5.2631578947368425" y="794.736842105263" transform="rotate(45, 0, 799.9999999999999)"></rect><rect width="10.526315789473685" height="10.526315789473685" x="56.2753036437247" y="794.736842105263" transform="rotate(45, 61.53846153846154, 799.9999999999999)"></rect><rect width="10.526315789473685" height="10.526315789473685" x="117.81376518218624" y="794.736842105263" transform="rotate(45, 123.07692307692308, 799.9999999999999)"></rect><rect width="10.526315789473685" height="10.526315789473685" x="179.35222672064776" y="794.736842105263" transform="rotate(45, 184.6153846153846, 799.9999999999999)"></rect><rect width="10.526315789473685" height="10.526315789473685" x="240.8906882591093" y="794.736842105263" transform="rotate(45, 246.15384615384616, 799.9999999999999)"></rect><rect width="10.526315789473685" height="10.526315789473685" x="302.42914979757086" y="794.736842105263" transform="rotate(45, 307.6923076923077, 799.9999999999999)"></rect><rect width="10.526315789473685" height="10.526315789473685" x="363.9676113360324" y="794.736842105263" transform="rotate(45, 369.2307692307692, 799.9999999999999)"></rect><rect width="10.526315789473685" height="10.526315789473685" x="425.50607287449395" y="794.736842105263" transform="rotate(45, 430.7692307692308, 799.9999999999999)"></rect><rect width="10.526315789473685" height="10.526315789473685" x="487.0445344129555" y="794.736842105263" transform="rotate(45, 492.3076923076923, 799.9999999999999)"></rect><rect width="10.526315789473685" height="10.526315789473685" x="548.5829959514169" y="794.736842105263" transform="rotate(45, 553.8461538461538, 799.9999999999999)"></rect><rect width="10.526315789473685" height="10.526315789473685" x="610.1214574898785" y="794.736842105263" transform="rotate(45, 615.3846153846154, 799.9999999999999)"></rect><rect width="10.526315789473685" height="10.526315789473685" x="671.65991902834" y="794.736842105263" transform="rotate(45, 676.9230769230769, 799.9999999999999)"></rect><rect width="10.526315789473685" height="10.526315789473685" x="733.1983805668016" y="794.736842105263" transform="rotate(45, 738.4615384615385, 799.9999999999999)"></rect><rect width="10.526315789473685" height="10.526315789473685" x="794.7368421052631" y="794.736842105263" transform="rotate(45, 800, 799.9999999999999)"></rect></g></svg>